<?xml version="1.0" encoding="utf-8"?>
<!-- Generator: Adobe Illustrator 22.1.0, SVG Export Plug-In . SVG Version: 6.00 Build 0)  -->
<svg version="1.1" id="Layer_1" xmlns="http://www.w3.org/2000/svg" xmlns:xlink="http://www.w3.org/1999/xlink" x="0px" y="0px"
	 viewBox="0 0 35.2 49" width="35" height="49" style="enable-background:new 0 0 35.2 49;" xml:space="preserve">
<g>
	<path d="M27.5,0c-0.1,0-0.1,0-0.2,0c-0.3,0.2-0.5,0.5-0.7,0.8c-0.3,0.6-0.5,1.1-0.7,1.7c-0.1,0.4-0.3,0.6-0.7,0.7
		c-1.2,0.2-2,0.9-2.6,1.9c-0.4,0.6-0.7,1.3-0.9,2c-0.7,1.9-1.3,3.8-1.9,5.7c-0.3,0.9-0.3,0.9-1.3,0.9c-1.1,0-1.1-0.2-1.1,1.1
		c0,0.4,0.1,0.6,0.5,0.6c0.1,0,0.3-0.1,0.4,0.1c0,0.1-0.1,0.2-0.2,0.3c-0.6,0.6-1.4,1-2.2,1.2c-1,0.3-1.9,0.5-2.9,0.8
		c-2.4,0.8-4.6,1.9-6.3,3.8c-1,1.2-1.8,2.5-2.4,4c-1.9,4.3-2.7,8.9-3.4,13.6c-0.3,2.2-0.5,4.4-0.7,6.5C0.1,46.8,0,47.9,0,49
		c5.6,0,11.2,0,16.8-0.1c0.1-0.2,0-0.4-0.1-0.6c-0.3-0.9-1-1.3-1.9-1.5c-0.4-0.1-0.4-0.2-0.2-0.5c0.4-0.5,0.6-1,0.8-1.6
		c0.8-2.4,1.1-5,1.5-7.5c0.3-1.9,0.7-3.8,1.7-5.5c0.7-1.3,1.7-2.3,2.8-3.2c0.4-0.3,0.4-0.3,0.5,0.2c0,0.4,0.1,0.7,0.1,1.1
		c0.2,2.4,0.1,4.8-0.1,7.1c-0.2,1.9-0.2,3.7-0.1,5.6c0.2,2.1,0.6,4.2,1.1,6.3c2.2,0,4.5,0,6.7,0c-0.2-1.1-1.1-2-2.1-2.2
		c-0.6-0.1-1.3,0-1.9,0.1c-0.3,0.1-0.4,0-0.5-0.3c-0.2-2.7-0.1-5.3,0.5-8c0.6-3,1.2-6.1,1.5-9.2c0.1-1.3,0.5-2.4,1.1-3.5
		c0.6-1.1,1.1-2.2,1.7-3.3c0.5-0.9,0.6-1.7,0.2-2.6c-0.1-0.4-0.3-0.7-0.4-1.1c-0.5-1-1-2-1.5-2.9c-0.2-0.5-0.2-0.6,0.4-0.6
		c0.8,0,0.8,0,0.8-0.8c0-0.1,0-0.2,0-0.3c0-0.3-0.1-0.5-0.5-0.5c-0.3,0-0.5,0-0.8,0c-0.3,0-0.5-0.1-0.4-0.5c0.3-1.2,1.4-2.1,2.6-2.2
		c1.1-0.1,2.2,0,3.3,0.2c0.3,0.1,0.5,0,0.6-0.3c0.2-0.5,0.4-1,0.6-1.5c0.1-0.2,0.1-0.4,0-0.6c-1.6-2.1-3.4-4-5.8-5.2
		C29.1,3.4,29,3.2,28.9,3c-0.2-0.7-0.3-1.4-0.6-2.1C28.1,0.5,27.9,0.2,27.5,0z"/>
</g>
</svg>
